# Blender v2.79 (sub 0) OBJ File: ''
# www.blender.org
mtllib island.mtl
o IslandSand_Cylinder
v 0.000000 -2.065441 -3.152316
v 0.000000 1.013284 -2.142618
v 0.986156 -2.106167 -3.173927
v 0.403065 1.009831 -2.111872
v 1.646303 -2.123256 -3.035695
v 0.784592 0.979034 -1.978512
v 2.169428 -2.124151 -2.759833
v 1.125432 0.899057 -1.741003
v 2.580296 -2.114686 -2.364971
v 1.422154 0.829597 -1.450676
v 2.797106 -2.082241 -1.829487
v 1.662091 0.783502 -1.126049
v 2.949917 -2.099828 -1.221121
v 1.830183 0.745944 -0.762741
v 2.983595 -2.028409 -0.599702
v 1.970308 0.767795 -0.390567
v 3.000000 -2.000000 -0.000000
v 2.032500 0.792901 -0.004511
v 2.974556 -2.025218 0.596311
v 1.974963 0.759899 0.388271
v 2.929426 -2.127843 1.218684
v 1.830526 0.748035 0.758009
v 2.678087 -2.160509 1.784126
v 1.670364 0.767867 1.119424
v 2.254700 -2.135823 2.246456
v 1.456437 0.823520 1.456999
v 1.739809 -2.096569 2.601575
v 1.152169 0.832401 1.727194
v 1.165501 -2.029653 2.807512
v 0.770980 0.794238 1.879279
v 0.585274 -2.000007 2.942365
v 0.396165 0.782937 1.982075
v -0.000001 -2.000000 3.000000
v -0.000001 0.767491 2.005758
v -0.585276 -2.000007 2.942364
v -0.396166 0.782937 1.982075
v -1.165503 -2.029653 2.807511
v -0.770982 0.794238 1.879278
v -1.739810 -2.096569 2.601574
v -1.152170 0.832401 1.727194
v -2.254703 -2.135823 2.246454
v -1.456438 0.823520 1.456998
v -2.678088 -2.160509 1.784124
v -1.670365 0.767867 1.119424
v -2.929426 -2.127843 1.218682
v -1.830526 0.748034 0.758008
v -2.974556 -2.025217 0.596309
v -1.974963 0.759899 0.388269
v -3.000000 -2.000000 -0.000003
v -2.032499 0.792901 -0.004513
v -2.983595 -2.028409 -0.599705
v -1.970307 0.767794 -0.390569
v -2.949917 -2.099828 -1.221124
v -1.830182 0.745944 -0.762743
v -2.797105 -2.082242 -1.829491
v -1.662089 0.783503 -1.126051
v -2.580294 -2.114686 -2.364974
v -1.422152 0.829598 -1.450679
v -2.169425 -2.124151 -2.759835
v -1.125430 0.899057 -1.741005
v -1.646299 -2.123256 -3.035696
v -0.784589 0.979035 -1.978514
v -0.986149 -2.106167 -3.173927
v -0.403062 1.009831 -2.111872
vn 0.0164 0.3185 -0.9478
vn 0.2506 0.3640 -0.8971
vn 0.4935 0.4130 -0.7655
vn 0.6436 0.4403 -0.6261
vn 0.7994 0.4318 -0.4177
vn 0.8767 0.4004 -0.2668
vn 0.9099 0.3669 -0.1936
vn 0.9374 0.3356 -0.0930
vn 0.9373 0.3343 0.0983
vn 0.9072 0.3617 0.2151
vn 0.8435 0.3798 0.3798
vn 0.7454 0.3662 0.5571
vn 0.5822 0.3451 0.7362
vn 0.3396 0.3335 0.8795
vn 0.2338 0.3321 0.9138
vn 0.0726 0.3335 0.9400
vn -0.0726 0.3335 0.9400
vn -0.2338 0.3321 0.9138
vn -0.3396 0.3335 0.8795
vn -0.5822 0.3451 0.7362
vn -0.7454 0.3662 0.5571
vn -0.8435 0.3798 0.3798
vn -0.9072 0.3617 0.2151
vn -0.9373 0.3343 0.0983
vn -0.9374 0.3356 -0.0930
vn -0.9099 0.3669 -0.1936
vn -0.8767 0.4004 -0.2668
vn -0.7994 0.4318 -0.4177
vn -0.6436 0.4403 -0.6261
vn -0.4935 0.4130 -0.7655
vn 0.0000 0.9994 0.0354
vn -0.2506 0.3640 -0.8971
vn -0.0164 0.3185 -0.9478
vn -0.0000 -1.0000 0.0065
usemtl island-mtl
s off
f 1//1 2//1 4//1 3//1
f 3//2 4//2 6//2 5//2
f 5//3 6//3 8//3 7//3
f 7//4 8//4 10//4 9//4
f 9//5 10//5 12//5 11//5
f 11//6 12//6 14//6 13//6
f 13//7 14//7 16//7 15//7
f 15//8 16//8 18//8 17//8
f 17//9 18//9 20//9 19//9
f 19//10 20//10 22//10 21//10
f 21//11 22//11 24//11 23//11
f 23//12 24//12 26//12 25//12
f 25//13 26//13 28//13 27//13
f 27//14 28//14 30//14 29//14
f 29//15 30//15 32//15 31//15
f 31//16 32//16 34//16 33//16
f 33//17 34//17 36//17 35//17
f 35//18 36//18 38//18 37//18
f 37//19 38//19 40//19 39//19
f 39//20 40//20 42//20 41//20
f 41//21 42//21 44//21 43//21
f 43//22 44//22 46//22 45//22
f 45//23 46//23 48//23 47//23
f 47//24 48//24 50//24 49//24
f 49//25 50//25 52//25 51//25
f 51//26 52//26 54//26 53//26
f 53//27 54//27 56//27 55//27
f 55//28 56//28 58//28 57//28
f 57//29 58//29 60//29 59//29
f 59//30 60//30 62//30 61//30
f 4//31 2//31 64//31 62//31 60//31 58//31 56//31 54//31 52//31 50//31 48//31 46//31 44//31 42//31 40//31 38//31 36//31 34//31 32//31 30//31 28//31 26//31 24//31 22//31 20//31 18//31 16//31 14//31 12//31 10//31 8//31 6//31
f 61//32 62//32 64//32 63//32
f 63//33 64//33 2//33 1//33
f 1//34 3//34 5//34 7//34 9//34 11//34 13//34 15//34 17//34 19//34 21//34 23//34 25//34 27//34 29//34 31//34 33//34 35//34 37//34 39//34 41//34 43//34 45//34 47//34 49//34 51//34 53//34 55//34 57//34 59//34 61//34 63//34
